<svg width="360" height="480" xmlns="http://www.w3.org/2000/svg" version="1.1" xml:space="preserve">
 <g>
  <title>Layer 1</title>
  <path stroke="null" class="st0" d="m214.43583,211.23111c0,0 27.18323,-20.83017 48.46317,-22.79793c0,0 -20.29606,-6.07195 -50.59959,15.01121c-1.2931,-1.93965 -3.93552,-3.93552 -9.24848,-3.82308c0,0 29.09477,-33.8174 36.68471,-35.67271c0,0 -20.23984,4.07608 -31.42797,15.03932c0,0 17.31631,-19.08729 17.31631,-21.92649c0,0 -18.63752,6.35306 -24.56891,12.28446c0,0 29.15099,-49.78438 42.53177,-54.81623c0,0 -15.79832,1.09632 -32.66485,18.41263c0,0 13.80244,-33.11462 13.60567,-36.17871c0,0 -28.05467,35.30727 -34.63261,52.1738l-0.44977,-2.41754c0,0 2.64242,-22.15138 6.12817,-25.66524c0,0 -5.25674,1.96776 -8.12405,15.57343c0,0 -7.39316,-25.66524 -11.24435,-29.37587l-4.10419,38.59624l-2.64242,-7.02772l1.43365,9.86692c0,0 -13.26834,-28.05467 -15.91076,-39.69257l0.22489,9.22037c0,0 -12.05957,-13.60567 -11.60979,-21.27994c0,0 -3.51386,6.12817 3.28897,25.86202l-9.86692,-12.28446l13.80244,32.43996c0,0 -18.63752,-26.0869 -30.4722,-32.0183l5.70651,8.7706c0,0 -7.02772,-6.80283 -11.41302,-8.54571c0,0 30.92198,36.17871 35.95382,50.20604l-4.3853,-3.93552l5.25674,12.28446c0,0 -30.24731,-30.05054 -45.59586,-32.43996c0,0 38.14647,32.0183 43.20643,41.01378c0,0 -26.95834,-23.89425 -35.53216,-27.40811l21.47672,23.2477c0,0 -25.44035,-10.96325 -37.92158,-8.54571c0,0 42.75666,12.05957 52.1738,36.17871l-11.55357,-12.25635l5.9314,9.22037c0,0 -21.27994,-8.32082 -31.14686,-4.83507l15.99509,5.03185c0,0 -5.03185,0.44977 -8.7706,2.19265c0,0 9.86692,-0.64655 14.89877,5.25674c0,0 -21.05505,-8.12405 -26.95834,4.83507l5.48162,-3.73875l26.0869,5.70651c0,0 -28.05467,1.96776 -31.34364,5.25674l26.53668,-0.44977c0,0 -19.08729,3.6263 -22.57304,11.69413c0,0 8.54571,-4.89129 16.66975,-4.21663c0,0 -12.70612,4.3853 -12.93101,9.64203c0,0 14.47711,-11.83468 29.37587,-6.57795c0,0 -21.70161,3.28897 -32.24318,14.70199l13.38078,-5.48162c0,0 -5.48162,4.83507 -3.93552,9.33281c0,0 1.32121,-9.97936 21.70161,-11.72224l-2.41754,1.09632c-14.25222,3.73875 -17.11953,20.38039 -17.11953,20.38039c5.48162,-8.54571 11.86279,-10.96325 11.86279,-10.96325c-3.28897,2.8392 -3.73875,17.09142 -3.73875,17.09142c1.32121,-3.73875 7.02772,-8.7706 7.02772,-8.7706l-0.05622,8.74248c0,0 -3.03598,3.28897 -2.61431,9.22037l-1.2931,2.64242c0,0 -1.74288,-2.8392 -3.71064,-2.8392c0,0 4.16041,3.93552 1.96776,8.54571l-1.09632,2.64242c0,0 -1.74288,-2.8392 -3.73875,-3.06409c0,0 3.06409,3.51386 1.96776,7.44938c0,0 -2.75487,10.09181 -0.56222,12.93101l-2.97975,1.5461l0,8.93926c0,0 -0.70277,2.02398 -1.34932,-1.26499c0,0 -0.61844,9.22037 2.44565,11.60979c0,0 -3.26086,2.19265 -4.16041,-4.16041c0,0 -0.42166,6.57795 3.73875,11.18813c0,0 -0.64655,8.12405 1.32121,11.41302l-0.22489,3.06409c0,0 -1.74288,-3.73875 -2.8392,-5.03185l2.64242,7.67427c0,0 0.36544,9.41715 2.92353,10.73836c0,0 0.14055,3.28897 2.3332,4.83507c0,0 -3.93552,-0.22489 -5.70651,-5.25674c0,0 -1.5461,2.8392 5.25674,7.44938c0,0 3.73875,12.50934 11.83468,13.38078c0,0 5.03185,7.44938 12.28446,5.03185c0,0 8.7706,3.82308 14.70199,0.47789c0,0 6.83095,2.67054 11.75035,0c5.95951,-3.23275 14.70199,-0.47789 14.70199,-0.47789c7.2245,2.41754 12.28446,-5.03185 12.28446,-5.03185c8.12405,-0.87144 11.83468,-13.38078 11.83468,-13.38078c6.80283,-4.61019 5.25674,-7.44938 5.25674,-7.44938c-1.74288,5.03185 -5.70651,5.25674 -5.70651,5.25674c2.19265,-1.5461 2.3332,-4.83507 2.3332,-4.83507c2.55809,-1.32121 2.92353,-10.73836 2.92353,-10.73836l2.64242,-7.67427c-1.09632,1.32121 -2.8392,5.03185 -2.8392,5.03185l-0.22489,-3.06409c1.96776,-3.28897 1.32121,-11.41302 1.32121,-11.41302c4.16041,-4.61019 3.73875,-11.18813 3.73875,-11.18813c-0.87144,6.35306 -4.16041,4.16041 -4.16041,4.16041c3.06409,-2.41754 2.27698,-11.60979 2.27698,-11.60979c-0.64655,3.28897 -1.5461,1.26499 -1.5461,1.26499l0,-8.93926l-2.78298,-1.5461c2.19265,-2.8392 -0.42166,-12.93101 -0.42166,-12.93101c-1.09632,-3.93552 1.99587,-7.44938 1.99587,-7.44938c-1.96776,0.22489 -3.71064,3.06409 -3.71064,3.06409l-1.09632,-2.64242c-2.19265,-4.61019 1.96776,-8.54571 1.96776,-8.54571c-1.96776,0 -3.71064,2.8392 -3.71064,2.8392l-1.2931,-2.64242c0.44977,-5.9314 -2.61431,-9.22037 -2.61431,-9.22037l-0.05622,-8.74248c0,0 5.70651,5.03185 7.02772,8.7706c0,0 -0.44977,-14.25222 -3.73875,-17.09142c0,0 6.38117,2.41754 11.86279,10.96325c0,0 -2.86731,-16.66975 -17.11953,-20.38039c0,0 8.43327,-3.06409 14.33655,0c0,0 -13.32456,-6.88717 -17.85041,-6.74661c0,0 21.36427,-2.69864 30.35976,6.94339c0,0 -3.06409,-11.41302 -24.11914,-13.80244c0,0 2.64242,-3.28897 5.70651,-2.41754c0,0 -2.19265,-3.73875 -7.89916,-4.16041c0,0 23.2477,-10.96325 38.37136,-10.31669c-0.02811,0 -8.34893,-4.3853 -39.94557,5.48162l0,0zm-69.49011,40.56401l10.96325,-9.86692l2.19265,2.19265c-2.86731,-0.89955 -13.1559,7.67427 -13.1559,7.67427zm65.75136,-47.22629c-1.74288,1.26499 -3.51386,2.5862 -5.31296,4.01986l-8.68626,1.32121c0,0 7.08394,-9.27659 13.99922,-5.34107l0,0zm-11.89091,41.71655l2.19265,-2.19265l10.96325,9.86692c0,0 -10.31669,-8.57382 -13.1559,-7.67427z" fill="#D6D754" id="svg_1"/>
 </g>

</svg>